<?xml version="1.0" encoding="utf-8"?>
<!-- Generator: Adobe Illustrator 27.4.0, SVG Export Plug-In . SVG Version: 6.00 Build 0)  -->
<svg version="1.1" id="Calque_1" xmlns="http://www.w3.org/2000/svg" xmlns:xlink="http://www.w3.org/1999/xlink" x="0px" y="0px"
	 viewBox="0 0 186 76" style="enable-background:new 0 0 186 76;" xml:space="preserve">
<style type="text/css">
	.st0{fill:#1D1D1B;}
</style>
<g>
	<path class="st0" d="M56.2,30.9h3.2L64,43.7c0-0.9,0.3-2.2,0.9-4.4c0.5-1.5,2.6-6.8,0.9-8.5h1c0.1,0,0.2,0.1,0.3,0.1
		c0.9,0.6,0.1,3-0.3,4c-0.8,2.2-1.9,4.3-2.4,6.7c-0.2,1-0.5,2.2-0.1,3.2c0,0.1,0.3,0.8,0.3,0.8H62L56.2,30.9z"/>
	<path class="st0" d="M75.5,43.4l0.2,0.1c-0.7,1.7-2.2,2.3-3.8,2.3c-2.7,0-4.7-2-4.7-5s1.9-5.1,4.6-5.1c2.5,0,3.9,1.5,3.9,4.2h-5.9
		c0,0.5-0.2,5.4,2.9,5.4C73.9,45.2,75,44.5,75.5,43.4L75.5,43.4z M73.1,39.6v-1.2c0-1.8-0.4-2.5-1.3-2.5c-1.9,0-1.9,3.4-1.9,3.7
		H73.1z"/>
	<path class="st0" d="M83.7,37.5c-1.1,0-1-1.4-2.2-1.4c-0.5,0-0.9,0.3-1.3,0.7v8.8h-2.6V37c1-0.2,1.9-0.6,2.6-1.2v0.8
		c0.7-0.6,1.4-0.8,2.1-0.8c1,0,1.5,0.8,2.3,0.5C84.7,36.4,84.9,37.5,83.7,37.5L83.7,37.5z"/>
	<path class="st0" d="M86.2,33.4c0-0.7,0.5-1.2,1.3-1.2c0.8,0,1.4,0.6,1.4,1.3c0,1.1-0.3,2-2.6,2.5c0.2-0.3,0.3-0.6,0.3-0.8
		C86.6,34.5,86.2,34,86.2,33.4L86.2,33.4z M86.2,37c1-0.2,1.9-0.6,2.6-1.2v9.9h-2.6V37L86.2,37z"/>
	<path class="st0" d="M96.1,45.4v0.2c-0.3,0.2-0.6,0.3-1.2,0.3c-1.3,0-3.5-0.2-3.5-3.3V36h-0.9v-0.2h0.9V34c1-0.2,1.9-0.6,2.6-1.2v3
		h1.6V36h-1.6v7c0,1.4,0.3,2.6,1.2,2.6C95.6,45.6,95.9,45.5,96.1,45.4L96.1,45.4z"/>
	<path class="st0" d="M106,45.7c-1.1,0-2-0.7-2.4-1.7c-0.6,1.1-2,1.9-3.6,1.9c-1.8,0-3-1.1-3-2.8c0-1.8,2.6-3.2,6.3-3.4v-1.2
		c0-1.3-1-2.4-2.4-2.4c-1.5,0-1.6,1.4-2.6,1.4c-1.3,0-1-1.1-1-1.2c1.5,0.4,2.4-0.5,4.3-0.5c2.5,0,4.3,1.4,4.3,3.5L106,45.7L106,45.7
		z M103.4,39.9c-3.1,0.3-3.7,0.8-3.7,3.2c0,1.4,0.5,2.3,1.5,2.3c1.1,0,2.2-1.1,2.2-2.3L103.4,39.9L103.4,39.9z"/>
	<path class="st0" d="M116.9,40.8c0,2.8-1.8,4.8-4.7,4.8c-2,0-1.6-0.4-2.8-0.4c-0.7,0-1,0.4-1.5,0.4V32.1c1-0.2,1.9-0.6,2.6-1.2v5.8
		c0.7-0.6,1.5-0.9,2.3-0.9C115.1,35.8,116.9,38,116.9,40.8L116.9,40.8z M114.3,40.8c0-2.6-0.6-4.6-2-4.6c-0.7,0-1.6,0.4-1.6,1.4V43
		c0,1.2,0.2,2.4,1.5,2.4C113.7,45.4,114.3,43.4,114.3,40.8L114.3,40.8z"/>
	<path class="st0" d="M121.1,45.7h-2.6V32.1c1-0.2,1.9-0.6,2.6-1.2V45.7z"/>
	<path class="st0" d="M131.1,43.4l0.2,0.1c-0.7,1.7-2.2,2.3-3.8,2.3c-2.7,0-4.7-2-4.7-5s1.9-5.1,4.6-5.1c2.5,0,3.9,1.5,3.9,4.2h-5.9
		c0,0.5-0.2,5.4,2.9,5.4C129.5,45.2,130.6,44.5,131.1,43.4L131.1,43.4z M128.6,39.6v-1.2c0-1.8-0.4-2.5-1.3-2.5
		c-1.9,0-1.9,3.4-1.9,3.7H128.6L128.6,39.6z"/>
</g>
</svg>
